<?xml version="1.0" standalone="no"?>
<!DOCTYPE svg PUBLIC "-//W3C//DTD SVG 20010904//EN"
 "http://www.w3.org/TR/2001/REC-SVG-20010904/DTD/svg10.dtd">
<svg version="1.0" xmlns="http://www.w3.org/2000/svg"
 width="512.000000pt" height="512.000000pt" viewBox="0 0 512.000000 512.000000"
 preserveAspectRatio="xMidYMid meet">
<metadata>
Created by potrace 1.14, written by Peter Selinger 2001-2017
</metadata>
<g transform="translate(0.000000,512.000000) scale(0.100000,-0.100000)"
fill="#000000" stroke="none">
<path d="M1604 4292 c-68 -11 -99 -46 -110 -128 -3 -27 -8 -58 -10 -69 -5 -29
-52 -305 -57 -340 -3 -16 -10 -57 -16 -90 -6 -33 -13 -76 -16 -95 -3 -19 -10
-60 -15 -90 -5 -30 -12 -70 -15 -87 -3 -18 -8 -48 -11 -65 -3 -18 -25 -152
-50 -298 -24 -146 -46 -276 -48 -290 -3 -14 -7 -41 -10 -60 -9 -60 -47 -284
-51 -300 -2 -8 -4 -28 -4 -44 -1 -44 -15 -22 -46 74 -15 47 -34 99 -42 117
-27 59 -37 61 -463 58 -425 -2 -431 -3 -514 -66 -88 -68 -131 -165 -122 -274
10 -118 72 -212 174 -264 56 -28 95 -33 279 -35 l166 -1 153 -458 c84 -251
163 -472 175 -490 47 -69 137 -136 209 -155 225 -59 439 82 474 313 3 22 8 51
10 65 3 14 7 41 10 60 3 19 15 85 26 147 11 62 23 131 26 155 3 24 8 52 10 63
4 21 49 287 58 345 4 19 8 46 11 60 3 14 7 41 10 60 3 19 14 85 25 145 10 61
21 128 24 149 4 21 8 48 11 60 2 12 7 37 9 56 3 19 10 58 15 85 6 28 13 66 16
85 2 19 7 46 10 60 2 14 6 41 9 60 2 19 21 130 41 245 20 116 38 221 40 235 3
14 17 100 32 193 22 131 31 167 43 167 8 0 643 1 1410 3 l1395 2 58 28 c74 37
123 87 157 162 24 51 28 71 26 135 -2 51 -10 90 -24 123 -30 67 -109 140 -179
168 l-58 22 -1616 1 c-888 0 -1624 0 -1635 -2z"/>
<path d="M370 4153 c-8 -3 -92 -82 -187 -176 -115 -114 -174 -180 -178 -199
-10 -43 12 -92 58 -136 23 -22 64 -62 91 -90 l50 -51 -103 -106 -103 -106 5
-46 c5 -45 12 -53 178 -219 108 -107 184 -175 202 -179 48 -12 78 4 173 98 52
51 99 92 104 92 5 0 52 -41 103 -92 95 -93 125 -111 175 -98 16 4 91 70 194
173 172 171 197 205 183 260 -3 14 -50 70 -103 124 l-96 98 45 46 c24 26 63
65 87 88 59 55 75 89 67 135 -5 33 -32 64 -185 216 l-179 178 -48 -7 c-44 -6
-56 -14 -138 -96 -49 -49 -94 -93 -98 -97 -4 -4 -49 34 -100 85 -105 104 -143
124 -197 105z"/>
<path d="M2503 3299 c-17 -11 -35 -32 -40 -47 -5 -15 -9 -133 -9 -262 1 -210
3 -239 19 -263 23 -36 54 -47 131 -48 l62 -1 0 -717 c1 -651 2 -721 18 -768
52 -156 214 -249 371 -212 112 26 193 98 235 209 11 28 14 182 16 750 1 393 3
721 3 727 1 9 28 12 96 12 l95 0 1 -502 c0 -276 2 -522 5 -547 29 -244 207
-485 428 -580 120 -51 266 -16 354 84 142 162 101 391 -91 506 -21 12 -43 34
-48 47 -5 14 -9 235 -9 508 l0 483 76 1 c43 1 87 7 102 15 52 27 56 45 55 312
l0 245 -32 32 -31 32 -888 2 c-870 2 -888 1 -919 -18z"/>
</g>
</svg>
